<?xml version="1.0" encoding="UTF-8" standalone="no"?>
<!-- Created with Inkscape (http://www.inkscape.org/) -->

<svg
   width="210mm"
   height="297mm"
   viewBox="0 0 210 297"
   version="1.1"
   id="svg5"
   inkscape:version="1.1.2 (0a00cf5339, 2022-02-04)"
   sodipodi:docname="puma.svg"
   xmlns:inkscape="http://www.inkscape.org/namespaces/inkscape"
   xmlns:sodipodi="http://sodipodi.sourceforge.net/DTD/sodipodi-0.dtd"
   xmlns="http://www.w3.org/2000/svg"
   xmlns:svg="http://www.w3.org/2000/svg">
  <sodipodi:namedview
     id="namedview7"
     pagecolor="#ffffff"
     bordercolor="#666666"
     borderopacity="1.0"
     inkscape:pageshadow="2"
     inkscape:pageopacity="0.0"
     inkscape:pagecheckerboard="0"
     inkscape:document-units="mm"
     showgrid="true"
     inkscape:zoom="0.5683642"
     inkscape:cx="373.00027"
     inkscape:cy="560.38012"
     inkscape:window-width="1862"
     inkscape:window-height="870"
     inkscape:window-x="0"
     inkscape:window-y="0"
     inkscape:window-maximized="1"
     inkscape:current-layer="layer1">
    <inkscape:grid
       type="xygrid"
       id="grid824" />
  </sodipodi:namedview>
  <defs
     id="defs2" />
  <g
     inkscape:label="Layer 1"
     inkscape:groupmode="layer"
     id="layer1">
    <g
       id="surface23858"
       transform="matrix(0.35277778,0,0,0.35277778,4.0815967,186.18724)">
      <path
         style="fill:#ffffff;fill-opacity:1;fill-rule:nonzero;stroke:#000000;stroke-width:11.25;stroke-linecap:butt;stroke-linejoin:miter;stroke-miterlimit:1;stroke-opacity:1"
         d="m 1045,342.1875 c 0,-173.94531 -229.17969,-315 -511.875,-315 -282.69531,0 -511.875,141.05469 -511.875,315 0,173.98437 229.17969,315 511.875,315 282.69531,0 511.875,-141.01563 511.875,-315"
         transform="matrix(0.1,0,0,-0.1,0,297)"
         id="path1223" />
      <path
         style="fill:#ffffff;fill-opacity:1;fill-rule:evenodd;stroke:#000000;stroke-width:11.25;stroke-linecap:butt;stroke-linejoin:miter;stroke-miterlimit:1;stroke-opacity:1"
         d="m 595,2828.4375 433.125,-253.125 236.25,129.375 -444.375,258.75 z m 0,0"
         transform="matrix(0.1,0,0,-0.1,0,297)"
         id="path1225" />
      <path
         style="fill:#ffffff;fill-opacity:1;fill-rule:evenodd;stroke:#000000;stroke-width:11.25;stroke-linecap:butt;stroke-linejoin:miter;stroke-miterlimit:1;stroke-opacity:1"
         d="m 1033.75,2575.3125 883.125,-691.875 225,123.75 -877.5,697.5 z m 0,0"
         transform="matrix(0.1,0,0,-0.1,0,297)"
         id="path1227" />
      <path
         style="fill:#ffffff;fill-opacity:1;fill-rule:evenodd;stroke:#000000;stroke-width:11.25;stroke-linecap:butt;stroke-linejoin:miter;stroke-miterlimit:1;stroke-opacity:1"
         d="m 595,2828.4375 c -90,-168.75 -123.75,-315.9766 -101.25,-441.5625 22.5,-125.5859 90,-246.5625 202.5,-362.8125"
         transform="matrix(0.1,0,0,-0.1,0,297)"
         id="path1229" />
      <path
         style="fill:#ffffff;fill-opacity:1;fill-rule:evenodd;stroke:#000000;stroke-width:11.25;stroke-linecap:butt;stroke-linejoin:miter;stroke-miterlimit:1;stroke-opacity:1"
         d="m 696.25,2024.0625 331.875,-191.25 911.25,-337.5"
         transform="matrix(0.1,0,0,-0.1,0,297)"
         id="path1231" />
      <path
         style="fill:#ffffff;fill-opacity:1;fill-rule:evenodd;stroke:#000000;stroke-width:11.25;stroke-linecap:butt;stroke-linejoin:miter;stroke-miterlimit:1;stroke-opacity:1"
         d="m 1922.5,1883.4375 c 105.0391,-142.4609 108.7109,-271.875 11.25,-388.125"
         transform="matrix(0.1,0,0,-0.1,0,297)"
         id="path1233" />
      <path
         style="fill:#ffffff;fill-opacity:1;fill-rule:evenodd;stroke:#000000;stroke-width:11.25;stroke-linecap:butt;stroke-linejoin:miter;stroke-miterlimit:1;stroke-opacity:1"
         d="m 2141.875,2007.1875 c 105,-142.4609 108.75,-271.875 11.25,-388.125"
         transform="matrix(0.1,0,0,-0.1,0,297)"
         id="path1235" />
      <path
         style="fill:none;stroke:#000000;stroke-width:11.25;stroke-linecap:butt;stroke-linejoin:miter;stroke-miterlimit:1;stroke-opacity:1"
         d="m 1939.375,1495.3125 213.75,123.75"
         transform="matrix(0.1,0,0,-0.1,0,297)"
         id="path1237" />
      <path
         style="fill:#ffffff;fill-opacity:1;fill-rule:nonzero;stroke:#000000;stroke-width:11.25;stroke-linecap:butt;stroke-linejoin:miter;stroke-miterlimit:1;stroke-opacity:1"
         d="m 1031.6406,2266.9922 c 62.8125,-111.2891 60.3125,-233.0469 -5.5468,-271.9141 -65.89849,-38.8672 -170.19536,19.8438 -233.00786,131.1719 -62.8125,111.3281 -60.3125,233.0859 5.58593,271.9531 65.85938,38.8672 170.19532,-19.8828 232.96873,-131.2109"
         transform="matrix(0.1,0,0,-0.1,0,297)"
         id="path1239" />
      <path
         style="fill:#ffffff;fill-opacity:1;fill-rule:nonzero;stroke:#000000;stroke-width:11.25;stroke-linecap:butt;stroke-linejoin:miter;stroke-miterlimit:1;stroke-opacity:1"
         d="m 1045,387.1875 c 0,-173.94531 -229.17969,-315 -511.875,-315 -282.69531,0 -511.875,141.05469 -511.875,315 0,173.98437 229.17969,315 511.875,315 282.69531,0 511.875,-141.01563 511.875,-315"
         transform="matrix(0.1,0,0,-0.1,0,297)"
         id="path1241" />
      <path
         style="fill:#ffffff;fill-opacity:1;fill-rule:evenodd;stroke:#000000;stroke-width:11.25;stroke-linecap:butt;stroke-linejoin:miter;stroke-miterlimit:1;stroke-opacity:1"
         d="m 2254.375,657.1875 c 33.75,-3.75 44.0625,-15 30.9375,-33.75 -13.0859,-18.75 -14.0625,-47.8125 -2.8125,-87.1875 11.25,-39.375 32.7734,-73.125 64.6875,-101.25 31.875,-28.125 60.0391,-36.5625 84.375,-25.3125 24.375,11.25 36.5625,35.625 36.5625,73.125 0,37.5 -5.625,69.375 -16.875,95.625 -11.25,26.25 -22.5,45 -33.75,56.25 -11.25,11.25 -24.375,19.6875 -39.375,25.3125 -15,5.625 -7.5,21.5625 22.5,47.8125"
         transform="matrix(0.1,0,0,-0.1,0,297)"
         id="path1243" />
      <path
         style="fill:#ffffff;fill-opacity:1;fill-rule:evenodd;stroke:none"
         d="m 244,255.46875 -21.375,12.375 -14.625,-35.4375 21.375,-9 z m 0,0"
         id="path1245" />
      <path
         style="fill:none;stroke:#000000;stroke-width:11.25;stroke-linecap:butt;stroke-linejoin:miter;stroke-miterlimit:1;stroke-opacity:1"
         d="m 2440,415.3125 -213.75,-123.75 -146.25,354.375 213.75,90"
         transform="matrix(0.1,0,0,-0.1,0,297)"
         id="path1247" />
      <path
         style="fill:#ffffff;fill-opacity:1;fill-rule:evenodd;stroke:#000000;stroke-width:11.25;stroke-linecap:butt;stroke-linejoin:miter;stroke-miterlimit:1;stroke-opacity:1"
         d="m 2411.875,398.4375 c 3.75,67.5 -3.75,116.25 -22.5,146.25 -18.75,30 -48.75,50.625 -90,61.875"
         transform="matrix(0.1,0,0,-0.1,0,297)"
         id="path1249" />
      <path
         style="fill:none;stroke:#000000;stroke-width:11.25;stroke-linecap:butt;stroke-linejoin:miter;stroke-miterlimit:1;stroke-opacity:1"
         d="m 2305,606.5625 -56.25,-28.125"
         transform="matrix(0.1,0,0,-0.1,0,297)"
         id="path1251" />
      <path
         style="fill:#ffffff;fill-opacity:1;fill-rule:evenodd;stroke:#000000;stroke-width:11.25;stroke-linecap:butt;stroke-linejoin:miter;stroke-miterlimit:1;stroke-opacity:1"
         d="m 2361.25,370.3125 c 3.7891,67.5 -3.7891,116.25 -22.5,146.25 -18.7109,30 -48.7891,50.625 -90,61.875"
         transform="matrix(0.1,0,0,-0.1,0,297)"
         id="path1253" />
      <path
         style="fill:#ffffff;fill-opacity:1;fill-rule:evenodd;stroke:#000000;stroke-width:11.25;stroke-linecap:butt;stroke-linejoin:miter;stroke-miterlimit:1;stroke-opacity:1"
         d="m 2057.5,544.6875 c 33.75,-3.75 44.0234,-15 30.9375,-33.75 -13.125,-18.75 -14.0625,-47.8125 -2.8125,-87.1875 11.25,-39.375 32.8125,-73.125 64.6875,-101.25 31.9141,-28.125 60,-36.5625 84.375,-25.3125 24.3359,11.25 36.5625,35.625 36.5625,73.125 0,37.5 -5.625,69.375 -16.875,95.625 -11.25,26.25 -22.5,45 -33.75,56.25 -11.25,11.25 -24.3359,19.6875 -39.375,25.3125 -15.0391,5.625 -7.4609,21.5625 22.5,47.8125"
         transform="matrix(0.1,0,0,-0.1,0,297)"
         id="path1255" />
      <path
         style="fill:#ffffff;fill-opacity:1;fill-rule:nonzero;stroke:#000000;stroke-width:11.25;stroke-linecap:butt;stroke-linejoin:miter;stroke-miterlimit:1;stroke-opacity:1"
         d="m 2395.3125,431.875 c -23.3594,-8.51563 -54.3359,17.77344 -69.2187,58.63281 -14.8829,40.89844 -8.0079,80.9375 15.3515,89.41406 23.3594,8.51563 54.375,-17.73437 69.2188,-58.63281 14.8828,-40.89844 8.0078,-80.89844 -15.3516,-89.41406"
         transform="matrix(0.1,0,0,-0.1,0,297)"
         id="path1257" />
      <path
         style="fill:#ffffff;fill-opacity:1;fill-rule:nonzero;stroke:#000000;stroke-width:11.25;stroke-linecap:butt;stroke-linejoin:miter;stroke-miterlimit:1;stroke-opacity:1"
         d="m 2417.8125,443.125 c -23.3594,-8.51563 -54.3359,17.77344 -69.2187,58.63281 -14.8829,40.89844 -8.0079,80.9375 15.3515,89.41406 23.3594,8.51563 54.375,-17.73437 69.2188,-58.63281 14.8828,-40.89844 8.0078,-80.89844 -15.3516,-89.41406"
         transform="matrix(0.1,0,0,-0.1,0,297)"
         id="path1259" />
      <path
         style="fill:#ffffff;fill-opacity:1;fill-rule:evenodd;stroke:none"
         d="m 179.3125,112.59375 20.8125,-11.8125 -23.625,-6.75 -18.5625,11.25 z m 0,0"
         id="path1261" />
      <path
         style="fill:none;stroke:#000000;stroke-width:11.25;stroke-linecap:butt;stroke-linejoin:miter;stroke-miterlimit:1;stroke-opacity:1"
         d="m 1793.125,1844.0625 208.125,118.125 -236.25,67.5 -185.625,-112.5"
         transform="matrix(0.1,0,0,-0.1,0,297)"
         id="path1263" />
      <path
         style="fill:#ffffff;fill-opacity:1;fill-rule:evenodd;stroke:#000000;stroke-width:11.25;stroke-linecap:butt;stroke-linejoin:miter;stroke-miterlimit:1;stroke-opacity:1"
         d="m 1517.5,1742.8125 c -11.25,71.25 6.5625,125.625 53.4375,163.125 46.8359,37.5391 120.9375,15.0391 222.1875,-67.5"
         transform="matrix(0.1,0,0,-0.1,0,297)"
         id="path1265" />
      <path
         style="fill:#ffffff;fill-opacity:1;fill-rule:evenodd;stroke:#000000;stroke-width:11.25;stroke-linecap:butt;stroke-linejoin:miter;stroke-miterlimit:1;stroke-opacity:1"
         d="m 1753.75,2024.0625 c 93.7891,26.25 176.2109,3.75 247.5,-67.5"
         transform="matrix(0.1,0,0,-0.1,0,297)"
         id="path1267" />
      <path
         style="fill:#ffffff;fill-opacity:1;fill-rule:evenodd;stroke:none"
         d="m 179.3125,112.59375 20.25,-11.8125 42.1875,124.875 -18.5625,10.6875 z m 0,0"
         id="path1269" />
      <path
         style="fill:none;stroke:#000000;stroke-width:11.25;stroke-linecap:butt;stroke-linejoin:miter;stroke-miterlimit:1;stroke-opacity:1"
         d="m 1793.125,1844.0625 202.5,118.125 421.875,-1248.75 -185.625,-106.875"
         transform="matrix(0.1,0,0,-0.1,0,297)"
         id="path1271" />
      <path
         style="fill:#ffffff;fill-opacity:1;fill-rule:evenodd;stroke:none"
         d="m 178.75,113.15625 44.4375,123.1875 -19.6875,6.75 -52.3125,-120.9375 z m 0,0"
         id="path1273" />
      <path
         style="fill:none;stroke:#000000;stroke-width:11.25;stroke-linecap:butt;stroke-linejoin:miter;stroke-miterlimit:1;stroke-opacity:1"
         d="M 1787.5,1838.4375 2231.875,606.5625 2035,539.0625 1511.875,1748.4375"
         transform="matrix(0.1,0,0,-0.1,0,297)"
         id="path1275" />
      <path
         style="fill:#ffffff;fill-opacity:1;fill-rule:nonzero;stroke:#000000;stroke-width:11.25;stroke-linecap:butt;stroke-linejoin:miter;stroke-miterlimit:1;stroke-opacity:1"
         d="m 803.125,404.0625 c 0,-71.44531 -118.35938,-129.375 -264.375,-129.375 -146.01563,0 -264.375,57.92969 -264.375,129.375 0,71.44531 118.35937,129.375 264.375,129.375 146.01562,0 264.375,-57.92969 264.375,-129.375"
         transform="matrix(0.1,0,0,-0.1,0,297)"
         id="path1277" />
      <path
         style="fill:#ffffff;fill-opacity:1;fill-rule:evenodd;stroke:none"
         d="m 27.4375,258.28125 v -128.8125 l 53.4375,-6.1875 v 134.4375 z m 0,0"
         id="path1279" />
      <path
         style="fill:none;stroke:#000000;stroke-width:11.25;stroke-linecap:butt;stroke-linejoin:miter;stroke-miterlimit:1;stroke-opacity:1"
         d="m 274.375,387.1875 v 1288.125 l 534.375,61.875 V 392.8125"
         transform="matrix(0.1,0,0,-0.1,0,297)"
         id="path1281" />
      <path
         style="fill:#ffffff;fill-opacity:1;fill-rule:evenodd;stroke:none"
         d="m 79.75,57.46875 -60.75,34.875 23.625,41.625 60.75,-36.5625 z m 0,0"
         id="path1283" />
      <path
         style="fill:none;stroke:#000000;stroke-width:11.25;stroke-linecap:butt;stroke-linejoin:miter;stroke-miterlimit:1;stroke-opacity:1"
         d="m 797.5,2395.3125 -607.5,-348.75 236.25,-416.25 607.5,365.625"
         transform="matrix(0.1,0,0,-0.1,0,297)"
         id="path1285" />
      <path
         style="fill:#ffffff;fill-opacity:1;fill-rule:evenodd;stroke:#000000;stroke-width:11.25;stroke-linecap:butt;stroke-linejoin:miter;stroke-miterlimit:1;stroke-opacity:1"
         d="m 448.75,1647.1875 c 45,48.7891 69.33594,84.375 73.125,106.875 3.78906,22.5 16.875,48.75 39.375,78.75 22.5,30 44.0625,51.5625 64.6875,64.6875 20.625,13.125 42.1875,17.8125 64.6875,14.0625 22.5,-3.75 46.83594,-19.6875 73.125,-47.8125 26.28906,-28.125 41.21094,-62.8125 45,-104.0625 3.78906,-41.2109 -19.6875,-74.9609 -70.3125,-101.25 -50.625,-26.25 -96.60156,-42.1875 -137.8125,-47.8125 -41.21094,-5.625 -101.25,-0.9375 -180,14.0625"
         transform="matrix(0.1,0,0,-0.1,0,297)"
         id="path1287" />
      <path
         style="fill:#ffffff;fill-opacity:1;fill-rule:nonzero;stroke:#000000;stroke-width:11.25;stroke-linecap:butt;stroke-linejoin:miter;stroke-miterlimit:1;stroke-opacity:1"
         d="m 429.76562,1912.6172 c 62.8125,-111.2891 60.3125,-233.0859 -5.54687,-271.9141 -65.89844,-38.8672 -170.19531,19.8438 -233.00781,131.1719 -62.8125,111.3281 -60.3125,233.0859 5.58593,271.9531 65.85938,38.8672 170.19532,-19.8828 232.96875,-131.2109"
         transform="matrix(0.1,0,0,-0.1,0,297)"
         id="path1289" />
      <path
         style="fill:none;stroke:#000000;stroke-width:11.25;stroke-linecap:butt;stroke-linejoin:miter;stroke-miterlimit:1;stroke-opacity:1"
         d="m 274.375,1484.0625 c 26.28906,-82.5 115.3125,-123.75 267.1875,-123.75 151.875,0 240.89844,43.1641 267.1875,129.375"
         transform="matrix(0.1,0,0,-0.1,0,297)"
         id="path1291" />
    </g>
  </g>
</svg>
